<svg width="28" height="28" viewBox="0 0 28 28" fill="none" xmlns="http://www.w3.org/2000/svg">
<circle cx="14" cy="14" r="14" fill="#FFFBFF"/>
<mask id="mask0_1_725" style="mask-type:alpha" maskUnits="userSpaceOnUse" x="6" y="6" width="16" height="16">
<rect x="6" y="6" width="16" height="16" fill="#D9D9D9"/>
</mask>
<g mask="url(#mask0_1_725)">
<path d="M15.3 20.6C15.1333 20.6889 14.964 20.7027 14.792 20.6413C14.6195 20.5804 14.4889 20.4667 14.4 20.3L13.4 18.3C13.3111 18.1333 13.2973 17.964 13.3586 17.792C13.4195 17.6196 13.5333 17.4889 13.7 17.4C13.8666 17.3111 14.036 17.2973 14.208 17.3587C14.3804 17.4196 14.5111 17.5333 14.6 17.7L15.6 19.7C15.6889 19.8667 15.7029 20.036 15.642 20.208C15.5806 20.3804 15.4666 20.5111 15.3 20.6ZM19.3 20.6C19.1333 20.6889 18.964 20.7027 18.792 20.6413C18.6195 20.5804 18.4889 20.4667 18.4 20.3L17.4 18.3C17.3111 18.1333 17.2973 17.964 17.3586 17.792C17.4195 17.6196 17.5333 17.4889 17.7 17.4C17.8666 17.3111 18.036 17.2973 18.208 17.3587C18.3804 17.4196 18.5111 17.5333 18.6 17.7L19.6 19.7C19.6889 19.8667 19.7029 20.036 19.642 20.208C19.5806 20.3804 19.4666 20.5111 19.3 20.6ZM11.3 20.6C11.1333 20.6889 10.964 20.7027 10.792 20.6413C10.6195 20.5804 10.4889 20.4667 10.4 20.3L9.39998 18.3C9.31109 18.1333 9.29731 17.964 9.35865 17.792C9.41954 17.6196 9.53331 17.4889 9.69998 17.4C9.86665 17.3111 10.036 17.2973 10.208 17.3587C10.3804 17.4196 10.5111 17.5333 10.6 17.7L11.6 19.7C11.6889 19.8667 11.7029 20.036 11.642 20.208C11.5806 20.3804 11.4666 20.5111 11.3 20.6ZM11 16.6667C9.98887 16.6667 9.12509 16.3082 8.40865 15.5913C7.69176 14.8749 7.33331 14.0111 7.33331 13C7.33331 12.0778 7.63887 11.2722 8.24998 10.5833C8.86109 9.89445 9.61665 9.48889 10.5166 9.36667C10.8722 8.73334 11.3584 8.236 11.9753 7.87467C12.5918 7.51378 13.2666 7.33334 14 7.33334C15 7.33334 15.8693 7.65289 16.608 8.292C17.3471 8.93067 17.7944 9.72778 17.95 10.6833C18.7166 10.75 19.3611 11.0667 19.8833 11.6333C20.4055 12.2 20.6666 12.8778 20.6666 13.6667C20.6666 14.5 20.3751 15.2084 19.792 15.792C19.2084 16.3751 18.5 16.6667 17.6666 16.6667H11ZM11 15.3333H17.6666C18.1333 15.3333 18.5278 15.1722 18.85 14.85C19.1722 14.5278 19.3333 14.1333 19.3333 13.6667C19.3333 13.2 19.1722 12.8056 18.85 12.4833C18.5278 12.1611 18.1333 12 17.6666 12H16.6666V11.3333C16.6666 10.6 16.4055 9.97222 15.8833 9.45C15.3611 8.92778 14.7333 8.66667 14 8.66667C13.4666 8.66667 12.9804 8.81111 12.5413 9.1C12.1026 9.38889 11.7722 9.77778 11.55 10.2667L11.3833 10.6667H10.9666C10.3333 10.6889 9.79176 10.9249 9.34198 11.3747C8.89176 11.8249 8.66665 12.3667 8.66665 13C8.66665 13.6444 8.89442 14.1944 9.34998 14.65C9.80554 15.1056 10.3555 15.3333 11 15.3333Z" fill="#1C1B1F"/>
</g>
</svg>
