<svg width="16" height="16" viewBox="0 0 16 16" fill="none" xmlns="http://www.w3.org/2000/svg">
<mask id="mask0_1_730" style="mask-type:alpha" maskUnits="userSpaceOnUse" x="0" y="0" width="16" height="16">
<rect width="16" height="16" fill="#D9D9D9"/>
</mask>
<g mask="url(#mask0_1_730)">
<path d="M8.00002 10C8.55558 10 9.0278 9.80556 9.41669 9.41667C9.80558 9.02778 10 8.55556 10 8.00001C10 7.44445 9.80558 6.97223 9.41669 6.58334C9.0278 6.19445 8.55558 6.00001 8.00002 6.00001C7.44447 6.00001 6.97224 6.19445 6.58335 6.58334C6.19447 6.97223 6.00002 7.44445 6.00002 8.00001C6.00002 8.55556 6.19447 9.02778 6.58335 9.41667C6.97224 9.80556 7.44447 10 8.00002 10ZM8.00002 11.3333C7.0778 11.3333 6.2918 11.0082 5.64202 10.358C4.9918 9.70823 4.66669 8.92223 4.66669 8.00001C4.66669 7.07778 4.9918 6.29156 5.64202 5.64134C6.2918 4.99156 7.0778 4.66667 8.00002 4.66667C8.92224 4.66667 9.70847 4.99156 10.3587 5.64134C11.0085 6.29156 11.3334 7.07778 11.3334 8.00001C11.3334 8.92223 11.0085 9.70823 10.3587 10.358C9.70847 11.0082 8.92224 11.3333 8.00002 11.3333ZM1.33335 8.66667C1.14446 8.66667 0.986243 8.60267 0.858687 8.47467C0.730687 8.34712 0.666687 8.18889 0.666687 8.00001C0.666687 7.81112 0.730687 7.65267 0.858687 7.52467C0.986243 7.39712 1.14446 7.33334 1.33335 7.33334H2.66669C2.85558 7.33334 3.01402 7.39712 3.14202 7.52467C3.26958 7.65267 3.33335 7.81112 3.33335 8.00001C3.33335 8.18889 3.26958 8.34712 3.14202 8.47467C3.01402 8.60267 2.85558 8.66667 2.66669 8.66667H1.33335ZM13.3334 8.66667C13.1445 8.66667 12.9862 8.60267 12.8587 8.47467C12.7307 8.34712 12.6667 8.18889 12.6667 8.00001C12.6667 7.81112 12.7307 7.65267 12.8587 7.52467C12.9862 7.39712 13.1445 7.33334 13.3334 7.33334H14.6667C14.8556 7.33334 15.0138 7.39712 15.1414 7.52467C15.2694 7.65267 15.3334 7.81112 15.3334 8.00001C15.3334 8.18889 15.2694 8.34712 15.1414 8.47467C15.0138 8.60267 14.8556 8.66667 14.6667 8.66667H13.3334ZM8.00002 3.33334C7.81113 3.33334 7.65291 3.26934 7.52535 3.14134C7.39735 3.01378 7.33335 2.85556 7.33335 2.66667V1.33334C7.33335 1.14445 7.39735 0.986005 7.52535 0.858005C7.65291 0.730449 7.81113 0.666672 8.00002 0.666672C8.18891 0.666672 8.34735 0.730449 8.47535 0.858005C8.60291 0.986005 8.66669 1.14445 8.66669 1.33334V2.66667C8.66669 2.85556 8.60291 3.01378 8.47535 3.14134C8.34735 3.26934 8.18891 3.33334 8.00002 3.33334ZM8.00002 15.3333C7.81113 15.3333 7.65291 15.2693 7.52535 15.1413C7.39735 15.0138 7.33335 14.8556 7.33335 14.6667V13.3333C7.33335 13.1445 7.39735 12.9862 7.52535 12.8587C7.65291 12.7307 7.81113 12.6667 8.00002 12.6667C8.18891 12.6667 8.34735 12.7307 8.47535 12.8587C8.60291 12.9862 8.66669 13.1445 8.66669 13.3333V14.6667C8.66669 14.8556 8.60291 15.0138 8.47535 15.1413C8.34735 15.2693 8.18891 15.3333 8.00002 15.3333ZM3.76669 4.70001L3.05002 4.00001C2.91669 3.87778 2.85269 3.72223 2.85802 3.53334C2.8638 3.34445 2.9278 3.18334 3.05002 3.05C3.18335 2.91667 3.34447 2.85001 3.53335 2.85001C3.72224 2.85001 3.8778 2.91667 4.00002 3.05L4.70002 3.76667C4.82224 3.90001 4.88335 4.05556 4.88335 4.23334C4.88335 4.41112 4.82224 4.56667 4.70002 4.70001C4.5778 4.83334 4.42513 4.89712 4.24202 4.89134C4.05846 4.886 3.90002 4.82223 3.76669 4.70001ZM12 12.95L11.3 12.2333C11.1778 12.1 11.1167 11.9418 11.1167 11.7587C11.1167 11.5751 11.1778 11.4222 11.3 11.3C11.4222 11.1667 11.5751 11.1029 11.7587 11.1087C11.9418 11.114 12.1 11.1778 12.2334 11.3L12.95 12C13.0834 12.1222 13.1474 12.2778 13.142 12.4667C13.1362 12.6556 13.0722 12.8167 12.95 12.95C12.8167 13.0833 12.6556 13.15 12.4667 13.15C12.2778 13.15 12.1222 13.0833 12 12.95ZM11.3 4.70001C11.1667 4.57778 11.1029 4.42489 11.1087 4.24134C11.114 4.05823 11.1778 3.90001 11.3 3.76667L12 3.05C12.1222 2.91667 12.2778 2.85267 12.4667 2.85801C12.6556 2.86378 12.8167 2.92778 12.95 3.05C13.0834 3.18334 13.15 3.34445 13.15 3.53334C13.15 3.72223 13.0834 3.87778 12.95 4.00001L12.2334 4.70001C12.1 4.82223 11.9445 4.88334 11.7667 4.88334C11.5889 4.88334 11.4334 4.82223 11.3 4.70001ZM3.05002 12.95C2.91669 12.8167 2.85002 12.6556 2.85002 12.4667C2.85002 12.2778 2.91669 12.1222 3.05002 12L3.76669 11.3C3.90002 11.1778 4.05846 11.1167 4.24202 11.1167C4.42513 11.1167 4.5778 11.1778 4.70002 11.3C4.83335 11.4222 4.89735 11.5751 4.89202 11.7587C4.88624 11.9418 4.82224 12.1 4.70002 12.2333L4.00002 12.95C3.8778 13.0833 3.72224 13.1471 3.53335 13.1413C3.34447 13.136 3.18335 13.0722 3.05002 12.95Z" fill="#1C1B1F"/>
</g>
</svg>
